<?xml version="1.0" encoding="UTF-8" standalone="no"?><!DOCTYPE svg PUBLIC "-//W3C//DTD SVG 1.1//EN" "http://www.w3.org/Graphics/SVG/1.1/DTD/svg11.dtd"><svg width="100%" height="100%" viewBox="0 0 637 130" version="1.1" xmlns="http://www.w3.org/2000/svg" xmlns:xlink="http://www.w3.org/1999/xlink" xml:space="preserve" xmlns:serif="http://www.serif.com/" style="fill-rule:evenodd;clip-rule:evenodd;stroke-linejoin:round;stroke-miterlimit:2;"><text x="119.394px" y="102.795px" style="font-family:'Avenir-Black', 'Avenir', sans-serif;font-weight:800;font-size:94px;fill:#fff;">SLIM</text><path d="M426.615,98.095c-4.324,2.256 -8.836,3.885 -13.536,4.888c-4.7,1.002 -9.494,1.504 -14.382,1.504c-5.201,0 -9.995,-0.815 -14.382,-2.444c-4.386,-1.63 -8.178,-3.964 -11.374,-7.003c-3.196,-3.04 -5.687,-6.721 -7.473,-11.045c-1.786,-4.324 -2.679,-9.15 -2.679,-14.476c0,-5.327 0.893,-10.152 2.679,-14.476c1.786,-4.324 4.277,-8.006 7.473,-11.045c3.196,-3.04 6.988,-5.374 11.374,-7.003c4.387,-1.63 9.181,-2.444 14.382,-2.444c5.327,0 10.231,0.642 14.711,1.927c4.481,1.284 8.413,3.493 11.797,6.627l-10.34,11.28c-2.005,-2.068 -4.261,-3.635 -6.768,-4.7c-2.506,-1.066 -5.64,-1.598 -9.4,-1.598c-3.133,0 -5.969,0.532 -8.507,1.598c-2.538,1.065 -4.715,2.553 -6.533,4.465c-1.817,1.911 -3.211,4.183 -4.183,6.815c-0.971,2.632 -1.457,5.483 -1.457,8.554c0,3.133 0.486,6 1.457,8.601c0.972,2.6 2.366,4.856 4.183,6.768c1.818,1.911 3.995,3.399 6.533,4.465c2.538,1.065 5.374,1.598 8.507,1.598c3.196,0 5.954,-0.361 8.272,-1.081c2.319,-0.721 4.168,-1.457 5.546,-2.209l0,-10.81l-11.938,0l0,-13.536l26.038,0l0,34.78Z" style="fill:#fff;fill-rule:nonzero;"/><path d="M486.963,102.795l-45.214,0l0,-13.536l30.55,0l0,-12.408l-28.858,0l0,-13.536l28.858,0l0,-13.536l-32.242,0l0,-13.536l46.906,0l0,66.552Z" style="fill:#f00;fill-rule:nonzero;"/><path d="M498.713,36.243l22.184,0l15.322,43.428l0.188,0l15.416,-43.428l22.09,0l0,66.552l-14.664,0l0,-51.042l-0.188,0l-17.484,51.042l-11.186,0l-16.826,-51.042l-0.188,0l0,51.042l-14.664,0l0,-66.552Z" style="fill:#fff;fill-rule:nonzero;"/><path d="M583.971,89.259l33.746,-40.044l-32.524,0l0,-12.972l50.29,0l0,12.972l-33.088,40.044l34.216,0l0,13.536l-52.64,0l0,-13.536Z" style="fill:#fff;fill-rule:nonzero;"/><ellipse cx="51.224" cy="64.961" rx="51.224" ry="64.961" style="fill:#fff;"/><g><circle cx="35.098" cy="56.412" r="11.764"/><circle cx="67.351" cy="56.412" r="11.764"/></g><circle cx="51.166" cy="18.482" r="3.376"/><circle cx="61.123" cy="18.482" r="3.376"/><circle cx="41.325" cy="18.482" r="3.376"/><circle cx="46.325" cy="27.235" r="3.376"/><circle cx="56.325" cy="27.235" r="3.376"/><circle cx="51.283" cy="113.235" r="3.376"/><circle cx="41.325" cy="113.235" r="3.376"/><circle cx="61.123" cy="113.235" r="3.376"/><circle cx="56.123" cy="104.482" r="3.376"/><circle cx="46.123" cy="104.482" r="3.376"/><path d="M88.977,83.8c0,1.864 -1.513,3.377 -3.376,3.377c-1.864,0 -3.377,-1.513 -3.377,-3.377c0,-1.863 1.513,-3.376 3.377,-3.376c1.863,0 3.376,1.513 3.376,3.376Z"/><path d="M88.977,93.758c0,1.863 -1.513,3.376 -3.376,3.376c-1.864,0 -3.377,-1.513 -3.377,-3.376c0,-1.864 1.513,-3.377 3.377,-3.377c1.863,0 3.376,1.513 3.376,3.377Z"/><path d="M88.977,73.96c0,1.863 -1.513,3.376 -3.376,3.376c-1.864,0 -3.377,-1.513 -3.377,-3.376c0,-1.864 1.513,-3.377 3.377,-3.377c1.863,0 3.376,1.513 3.376,3.377Z"/><path d="M80.224,78.96c0,1.863 -1.513,3.376 -3.376,3.376c-1.864,0 -3.376,-1.513 -3.376,-3.376c0,-1.864 1.512,-3.377 3.376,-3.377c1.863,0 3.376,1.513 3.376,3.377Z"/><path d="M80.224,88.96c0,1.863 -1.513,3.376 -3.376,3.376c-1.864,0 -3.376,-1.513 -3.376,-3.376c0,-1.864 1.512,-3.377 3.376,-3.377c1.863,0 3.376,1.513 3.376,3.377Z"/><path d="M12.472,83.917c0,-1.863 1.512,-3.376 3.376,-3.376c1.863,0 3.376,1.513 3.376,3.376c0,1.864 -1.513,3.376 -3.376,3.376c-1.864,0 -3.376,-1.512 -3.376,-3.376Z"/><path d="M12.472,73.96c0,-1.864 1.512,-3.377 3.376,-3.377c1.863,0 3.376,1.513 3.376,3.377c0,1.863 -1.513,3.376 -3.376,3.376c-1.864,0 -3.376,-1.513 -3.376,-3.376Z"/><path d="M12.472,93.758c0,-1.864 1.512,-3.377 3.376,-3.377c1.863,0 3.376,1.513 3.376,3.377c0,1.863 -1.513,3.376 -3.376,3.376c-1.864,0 -3.376,-1.513 -3.376,-3.376Z"/><path d="M21.224,88.758c0,-1.864 1.513,-3.377 3.377,-3.377c1.863,0 3.376,1.513 3.376,3.377c0,1.863 -1.513,3.376 -3.376,3.376c-1.864,0 -3.377,-1.513 -3.377,-3.376Z"/><path d="M21.224,78.758c0,-1.864 1.513,-3.377 3.377,-3.377c1.863,0 3.376,1.513 3.376,3.377c0,1.863 -1.513,3.376 -3.376,3.376c-1.864,0 -3.377,-1.513 -3.377,-3.376Z"/></svg>